<svg width="30" height="30" viewBox="0 0 30 30" fill="none" xmlns="http://www.w3.org/2000/svg">
<g id="Buy" clip-path="url(#clip0_201_990)">
<g id="Iconly/Light-Outline/Buy">
<g id="Buy_2">
<path id="Combined-Shape" fill-rule="evenodd" clip-rule="evenodd" d="M9.66426 25.007C10.5271 25.007 11.2291 25.7078 11.2291 26.5706C11.2291 27.4334 10.5271 28.1355 9.66426 28.1355C8.80147 28.1355 8.1006 27.4334 8.1006 26.5706C8.1006 25.7078 8.80147 25.007 9.66426 25.007ZM23.2953 25.007C24.1593 25.007 24.8614 25.7078 24.8614 26.5706C24.8614 27.4334 24.1593 28.1355 23.2953 28.1355C22.4325 28.1355 21.7316 27.4334 21.7316 26.5706C21.7316 25.7078 22.4325 25.007 23.2953 25.007ZM4.49742 4.53392L7.01088 4.96895C7.41569 5.04024 7.72383 5.37617 7.75887 5.78703L8.04284 9.17173L9.0988 9.17219C9.27111 9.17226 9.44159 9.17234 9.61027 9.17241L11.5489 9.17334C11.7034 9.17341 11.8562 9.17349 12.0073 9.17357L14.1479 9.17474C14.2823 9.17482 14.4152 9.1749 14.5465 9.17498L16.0465 9.17594C16.1653 9.17602 16.2826 9.1761 16.3985 9.17618L17.7178 9.17715C17.822 9.17723 17.9247 9.17731 18.0261 9.17739L19.1764 9.17838C19.2669 9.17847 19.356 9.17855 19.4439 9.17863L20.1999 9.17938C20.2801 9.17947 20.3591 9.17955 20.4369 9.17964L21.3124 9.18065C21.3807 9.18074 21.4478 9.18082 21.5139 9.18091L22.2531 9.18194C22.3104 9.18203 22.3667 9.18211 22.4219 9.1822L22.8918 9.18298C22.941 9.18307 22.9893 9.18316 23.0366 9.18325L23.5599 9.18431C23.6 9.1844 23.6391 9.18449 23.6774 9.18458L23.9995 9.18538C24.0328 9.18547 24.0654 9.18556 24.0972 9.18565L24.4425 9.18674C24.4683 9.18683 24.4935 9.18692 24.518 9.18702L24.7208 9.18784C24.7414 9.18793 24.7614 9.18803 24.7808 9.18812L24.9859 9.18924C25.0008 9.18933 25.0151 9.18942 25.029 9.18952L25.1408 9.19037C25.1518 9.19046 25.1624 9.19056 25.1726 9.19065L25.253 9.19151C25.2608 9.1916 25.2682 9.1917 25.2753 9.1918L25.33 9.19266C25.3352 9.19276 25.3401 9.19286 25.3447 9.19295L25.3793 9.19383C25.3825 9.19393 25.3854 9.19403 25.3882 9.19412L25.4133 9.19531C25.4148 9.19541 25.4162 9.19551 25.4176 9.19561C25.4293 9.1967 25.4311 9.19691 25.4328 9.19711C26.1059 9.29499 26.698 9.64663 27.1016 10.188C27.5052 10.7281 27.6744 11.394 27.5777 12.061L26.4309 19.9856C26.2146 21.4937 24.9047 22.6308 23.3822 22.6308H10.1853C8.59387 22.6308 7.24651 21.3886 7.11722 19.7995L6.01033 6.63532L4.18928 6.32114C3.69505 6.23413 3.36516 5.76648 3.44975 5.27225C3.53675 4.77802 4.01407 4.45659 4.49742 4.53392ZM8.85637 10.9847L8.1951 10.9843L8.92376 19.6509C8.97693 20.3179 9.52191 20.8182 10.1877 20.8182H23.3797C24.0093 20.8182 24.547 20.3493 24.6365 19.727L25.7844 11.8012C25.811 11.6127 25.7639 11.4242 25.6491 11.2719C25.5355 11.1184 25.3688 11.0194 25.1802 10.9928C25.1715 10.9931 25.1507 10.9934 25.1182 10.9937L24.9868 10.9944C24.9593 10.9946 24.9291 10.9947 24.8962 10.9948L24.2116 10.9958C24.1538 10.9958 24.0938 10.9959 24.0315 10.9959L22.422 10.9958C22.3322 10.9958 22.2407 10.9958 22.1475 10.9957L20.3106 10.9946C20.2006 10.9945 20.0893 10.9944 19.9769 10.9944L18.9375 10.9935C18.8192 10.9934 18.6999 10.9933 18.5798 10.9932L17.4789 10.9923C17.3545 10.9921 17.2296 10.992 17.1041 10.9919L16.3458 10.9912C16.2185 10.9911 16.0909 10.991 15.963 10.9909L14.8057 10.9898C14.6767 10.9897 14.5476 10.9895 14.4184 10.9894L13.6443 10.9887C13.5155 10.9886 13.3868 10.9885 13.2583 10.9884L12.4907 10.9877C12.3634 10.9875 12.2365 10.9874 12.11 10.9873L10.9856 10.9863C10.8624 10.9862 10.7399 10.9861 10.6182 10.986L9.19721 10.985C9.08254 10.9849 8.9689 10.9848 8.85637 10.9847ZM21.4389 13.6383C21.9392 13.6383 22.3452 14.0443 22.3452 14.5446C22.3452 15.0449 21.9392 15.4509 21.4389 15.4509H18.0893C17.5878 15.4509 17.183 15.0449 17.183 14.5446C17.183 14.0443 17.5878 13.6383 18.0893 13.6383H21.4389Z" fill="white"/>
</g>
</g>
<circle id="Ellipse 2" cx="26.115" cy="8.91069" r="3.43437" fill="#A8E910"/>
</g>
<defs>
<clipPath id="clip0_201_990">
<rect width="29.0014" height="29.0014" fill="white" transform="translate(0.546875 0.896973)"/>
</clipPath>
</defs>
</svg>
