<svg width="21" height="21" viewBox="0 0 21 21" fill="none" xmlns="http://www.w3.org/2000/svg">
<circle cx="10.3627" cy="10.4176" r="10.3031" fill="white"/>
<path d="M14.7267 10.3663C14.7267 10.0801 14.6909 9.86546 14.6551 9.63293H10.4337V11.1534H12.938C12.8485 11.8152 12.1867 13.0673 10.4337 13.0673C8.9133 13.0673 7.67907 11.8152 7.67907 10.259C7.67907 7.77264 10.6126 6.62785 12.1867 8.14828L13.403 6.9856C12.6339 6.2701 11.6143 5.82292 10.4337 5.82292C7.96527 5.82292 5.99766 7.80842 5.99766 10.259C5.99766 12.7274 7.96527 14.6951 10.4337 14.6951C12.9916 14.6951 14.7267 12.9063 14.7267 10.3663Z" fill="#0A305E"/>
</svg>
