<svg width="22" height="21" viewBox="0 0 22 21" fill="none" xmlns="http://www.w3.org/2000/svg">
<path d="M21.1063 10.4176C21.1063 16.1079 16.4934 20.7208 10.8031 20.7208C5.11287 20.7208 0.5 16.1079 0.5 10.4176C0.5 4.72737 5.11287 0.114502 10.8031 0.114502C16.4934 0.114502 21.1063 4.72737 21.1063 10.4176Z" fill="white"/>
<path d="M10.3477 8.20218C9.20286 8.20218 8.29061 9.13232 8.29061 10.2592C8.29061 11.404 9.20286 12.3163 10.3477 12.3163C11.4746 12.3163 12.4047 11.404 12.4047 10.2592C12.4047 9.13232 11.4746 8.20218 10.3477 8.20218ZM10.3477 11.6008C9.61427 11.6008 9.0061 11.0105 9.0061 10.2592C9.0061 9.52585 9.59639 8.93556 10.3477 8.93556C11.081 8.93556 11.6713 9.52585 11.6713 10.2592C11.6713 11.0105 11.081 11.6008 10.3477 11.6008ZM12.9592 8.13063C12.9592 7.86232 12.7446 7.64767 12.4763 7.64767C12.2079 7.64767 11.9933 7.86232 11.9933 8.13063C11.9933 8.39894 12.2079 8.61359 12.4763 8.61359C12.7446 8.61359 12.9592 8.39894 12.9592 8.13063ZM14.3187 8.61359C14.2829 7.96965 14.1398 7.39725 13.6747 6.93218C13.2096 6.46711 12.6372 6.32401 11.9933 6.28823C11.3315 6.25246 9.34596 6.25246 8.68413 6.28823C8.04019 6.32401 7.48568 6.46711 7.00272 6.93218C6.53765 7.39725 6.39455 7.96965 6.35877 8.61359C6.323 9.27542 6.323 11.2609 6.35877 11.9228C6.39455 12.5667 6.53765 13.1212 7.00272 13.6042C7.48568 14.0692 8.04019 14.2123 8.68413 14.2481C9.34596 14.2839 11.3315 14.2839 11.9933 14.2481C12.6372 14.2123 13.2096 14.0692 13.6747 13.6042C14.1398 13.1212 14.2829 12.5667 14.3187 11.9228C14.3544 11.2609 14.3544 9.27542 14.3187 8.61359ZM13.4601 12.6204C13.3348 12.9781 13.0486 13.2464 12.7088 13.3895C12.1722 13.6042 10.9201 13.5505 10.3477 13.5505C9.75737 13.5505 8.50526 13.6042 7.98652 13.3895C7.62878 13.2464 7.36047 12.9781 7.21737 12.6204C7.00272 12.1016 7.05638 10.8495 7.05638 10.2592C7.05638 9.68683 7.00272 8.43472 7.21737 7.8981C7.36047 7.55824 7.62878 7.28993 7.98652 7.14683C8.50526 6.93218 9.75737 6.98584 10.3477 6.98584C10.9201 6.98584 12.1722 6.93218 12.7088 7.14683C13.0486 7.27204 13.317 7.55824 13.4601 7.8981C13.6747 8.43472 13.621 9.68683 13.621 10.2592C13.621 10.8495 13.6747 12.1016 13.4601 12.6204Z" fill="#0A305E"/>
</svg>
