<svg width="71" height="25" viewBox="0 0 71 25" fill="none" xmlns="http://www.w3.org/2000/svg">
<path id="Vector" d="M70.2207 0.37085L18.853 22.104C14.5933 23.8948 11.0153 24.7931 8.12191 24.7931C4.84524 24.7931 2.46672 23.6535 0.992219 21.3715C0.0648033 19.9063 -0.207278 18.0487 0.173051 15.7957C0.553379 13.5427 1.56564 11.1444 3.20397 8.59202C4.57023 6.52801 6.80831 3.81572 9.92408 0.452247C8.86725 2.10539 8.09228 3.92054 7.63041 5.8245C6.81124 9.29843 7.54849 11.8479 9.84216 13.4759C10.9334 14.2346 12.4342 14.6154 14.3476 14.6154C15.8748 14.6154 17.595 14.3713 19.5084 13.8829L70.2207 0.37085Z" fill="white"/>
</svg>
