<svg width="15" height="15" viewBox="0 0 15 15" fill="none" xmlns="http://www.w3.org/2000/svg">
<g id="akar-icons:search" clip-path="url(#clip0_201_996)">
<g id="Group">
<path id="Vector" d="M13.0168 12.9804L10.3064 10.2652L13.0168 12.9804ZM11.8084 6.63639C11.8084 7.99846 11.2674 9.30473 10.3042 10.2679C9.34111 11.231 8.03483 11.7721 6.67277 11.7721C5.31071 11.7721 4.00443 11.231 3.04131 10.2679C2.07819 9.30473 1.53711 7.99846 1.53711 6.63639C1.53711 5.27433 2.07819 3.96806 3.04131 3.00493C4.00443 2.04181 5.31071 1.50073 6.67277 1.50073C8.03483 1.50073 9.34111 2.04181 10.3042 3.00493C11.2674 3.96806 11.8084 5.27433 11.8084 6.63639V6.63639Z" stroke="white" stroke-width="1.52639" stroke-linecap="round"/>
</g>
</g>
<defs>
<clipPath id="clip0_201_996">
<rect width="14.5007" height="14.5007" fill="white" transform="translate(0.330078 0.29248)"/>
</clipPath>
</defs>
</svg>
