<svg width="22" height="21" viewBox="0 0 22 21" fill="none" xmlns="http://www.w3.org/2000/svg">
<circle cx="11.1273" cy="10.4176" r="10.3031" fill="white"/>
<path d="M14.7589 8.3987C15.1167 8.13039 15.4387 7.80842 15.6891 7.43278C15.3671 7.57588 14.9915 7.6832 14.6158 7.71898C15.0094 7.48644 15.2956 7.1287 15.4387 6.68151C15.0809 6.89616 14.6695 7.05715 14.2581 7.14658C13.9003 6.77095 13.4174 6.5563 12.8808 6.5563C11.8433 6.5563 11.0026 7.39701 11.0026 8.43447C11.0026 8.57757 11.0205 8.72067 11.0562 8.86377C9.50005 8.77433 8.10483 8.02306 7.17469 6.89616C7.0137 7.16447 6.92427 7.48644 6.92427 7.84419C6.92427 8.48814 7.24624 9.06053 7.76497 9.40039C7.46089 9.3825 7.1568 9.31095 6.90638 9.16786V9.18574C6.90638 10.098 7.55033 10.8493 8.40892 11.0281C8.26582 11.0639 8.08695 11.0997 7.92596 11.0997C7.80075 11.0997 7.69342 11.0818 7.56821 11.0639C7.80075 11.8152 8.49836 12.3518 9.32117 12.3697C8.67723 12.8705 7.8723 13.1746 6.99582 13.1746C6.83483 13.1746 6.69173 13.1567 6.54863 13.1389C7.37145 13.6755 8.35526 13.9796 9.4285 13.9796C12.8808 13.9796 14.7589 11.1355 14.7589 8.64912C14.7589 8.55969 14.7589 8.48814 14.7589 8.3987Z" fill="#0C3A6B"/>
</svg>
