<svg width="21" height="22" viewBox="0 0 21 22" fill="none" xmlns="http://www.w3.org/2000/svg">
<circle cx="10.6557" cy="11.1808" r="10.3031" fill="white"/>
<g clip-path="url(#clip0_332_35)">
<path d="M15.4133 8.91002C15.3571 8.70962 15.2477 8.52818 15.0967 8.385C14.9413 8.23742 14.751 8.13185 14.5435 8.07826C13.7672 7.87363 10.6568 7.87363 10.6568 7.87363C9.36009 7.85888 8.06372 7.92377 6.77498 8.06793C6.56754 8.12548 6.37753 8.23341 6.22186 8.38211C6.0689 8.52928 5.95811 8.71076 5.90024 8.9096C5.76121 9.65857 5.69366 10.4191 5.6985 11.1808C5.69354 11.9419 5.76092 12.7021 5.90024 13.452C5.95687 13.65 6.06725 13.8307 6.22062 13.9766C6.37399 14.1225 6.56498 14.228 6.77498 14.2838C7.56168 14.488 10.6568 14.488 10.6568 14.488C11.9551 14.5028 13.2531 14.4379 14.5435 14.2937C14.751 14.2401 14.9413 14.1345 15.0967 13.9869C15.2496 13.841 15.3583 13.6595 15.4129 13.4619C15.5556 12.7133 15.6249 11.9525 15.62 11.1903C15.6308 10.425 15.5615 9.66057 15.4133 8.9096V8.91002ZM9.66793 12.5963V9.76575L12.2558 11.1812L9.66793 12.5963Z" fill="#081F49"/>
</g>
<defs>
<clipPath id="clip0_332_35">
<rect width="9.92153" height="9.92153" fill="white" transform="translate(5.69629 6.22021)"/>
</clipPath>
</defs>
</svg>
